<mxfile host="app.diagrams.net" agent="Mozilla/5.0 (Macintosh; Intel Mac OS X 10_15_7) AppleWebKit/537.36 (KHTML, like Gecko) Chrome/139.0.0.0 Safari/537.36" version="28.1.0">
  <diagram name="Page-1" id="yre59FWqFF6-JoR8nMFE">
    <mxGraphModel dx="1426" dy="681" grid="1" gridSize="10" guides="1" tooltips="1" connect="1" arrows="1" fold="1" page="1" pageScale="1" pageWidth="850" pageHeight="1100" math="0" shadow="0">
      <root>
        <mxCell id="0" />
        <mxCell id="1" parent="0" />
        <mxCell id="7i4eZhQgf2fpV0Ovh3T5-3" value="" style="edgeStyle=orthogonalEdgeStyle;rounded=0;orthogonalLoop=1;jettySize=auto;html=1;" edge="1" parent="1" source="7i4eZhQgf2fpV0Ovh3T5-1" target="7i4eZhQgf2fpV0Ovh3T5-2">
          <mxGeometry relative="1" as="geometry" />
        </mxCell>
        <mxCell id="7i4eZhQgf2fpV0Ovh3T5-1" value="AUTH_GUARD&lt;div&gt;&lt;br&gt;&lt;/div&gt;" style="rounded=1;whiteSpace=wrap;html=1;" vertex="1" parent="1">
          <mxGeometry x="350" y="20" width="120" height="60" as="geometry" />
        </mxCell>
        <mxCell id="7i4eZhQgf2fpV0Ovh3T5-5" value="" style="edgeStyle=orthogonalEdgeStyle;rounded=0;orthogonalLoop=1;jettySize=auto;html=1;" edge="1" parent="1" source="7i4eZhQgf2fpV0Ovh3T5-2" target="7i4eZhQgf2fpV0Ovh3T5-4">
          <mxGeometry relative="1" as="geometry" />
        </mxCell>
        <mxCell id="7i4eZhQgf2fpV0Ovh3T5-2" value="&lt;div&gt;APP_CONTAINER&lt;/div&gt;" style="rounded=1;whiteSpace=wrap;html=1;" vertex="1" parent="1">
          <mxGeometry x="350" y="160" width="120" height="60" as="geometry" />
        </mxCell>
        <mxCell id="7i4eZhQgf2fpV0Ovh3T5-7" value="" style="edgeStyle=orthogonalEdgeStyle;rounded=0;orthogonalLoop=1;jettySize=auto;html=1;" edge="1" parent="1" source="7i4eZhQgf2fpV0Ovh3T5-4" target="7i4eZhQgf2fpV0Ovh3T5-6">
          <mxGeometry relative="1" as="geometry" />
        </mxCell>
        <mxCell id="7i4eZhQgf2fpV0Ovh3T5-9" value="" style="edgeStyle=orthogonalEdgeStyle;rounded=0;orthogonalLoop=1;jettySize=auto;html=1;" edge="1" parent="1" source="7i4eZhQgf2fpV0Ovh3T5-4" target="7i4eZhQgf2fpV0Ovh3T5-8">
          <mxGeometry relative="1" as="geometry" />
        </mxCell>
        <mxCell id="7i4eZhQgf2fpV0Ovh3T5-11" value="" style="edgeStyle=orthogonalEdgeStyle;rounded=0;orthogonalLoop=1;jettySize=auto;html=1;" edge="1" parent="1" source="7i4eZhQgf2fpV0Ovh3T5-4" target="7i4eZhQgf2fpV0Ovh3T5-10">
          <mxGeometry relative="1" as="geometry">
            <Array as="points">
              <mxPoint x="530" y="360" />
            </Array>
          </mxGeometry>
        </mxCell>
        <mxCell id="7i4eZhQgf2fpV0Ovh3T5-14" value="" style="edgeStyle=orthogonalEdgeStyle;rounded=0;orthogonalLoop=1;jettySize=auto;html=1;" edge="1" parent="1" source="7i4eZhQgf2fpV0Ovh3T5-4" target="7i4eZhQgf2fpV0Ovh3T5-13">
          <mxGeometry relative="1" as="geometry">
            <Array as="points">
              <mxPoint x="360" y="405" />
              <mxPoint x="350" y="405" />
            </Array>
          </mxGeometry>
        </mxCell>
        <mxCell id="7i4eZhQgf2fpV0Ovh3T5-4" value="&lt;div&gt;TabsView&lt;/div&gt;" style="rounded=1;whiteSpace=wrap;html=1;" vertex="1" parent="1">
          <mxGeometry x="350" y="300" width="120" height="60" as="geometry" />
        </mxCell>
        <mxCell id="7i4eZhQgf2fpV0Ovh3T5-21" value="" style="edgeStyle=orthogonalEdgeStyle;rounded=0;orthogonalLoop=1;jettySize=auto;html=1;" edge="1" parent="1" source="7i4eZhQgf2fpV0Ovh3T5-6" target="7i4eZhQgf2fpV0Ovh3T5-20">
          <mxGeometry relative="1" as="geometry">
            <Array as="points">
              <mxPoint x="80" y="580" />
              <mxPoint x="70" y="580" />
            </Array>
          </mxGeometry>
        </mxCell>
        <mxCell id="7i4eZhQgf2fpV0Ovh3T5-6" value="&lt;div&gt;MyBoothTab&lt;/div&gt;" style="rounded=1;whiteSpace=wrap;html=1;" vertex="1" parent="1">
          <mxGeometry x="80" y="440" width="140" height="100" as="geometry" />
        </mxCell>
        <mxCell id="7i4eZhQgf2fpV0Ovh3T5-8" value="&lt;div&gt;AnalyticsTab&lt;/div&gt;" style="rounded=1;whiteSpace=wrap;html=1;" vertex="1" parent="1">
          <mxGeometry x="640" y="440" width="140" height="100" as="geometry" />
        </mxCell>
        <mxCell id="7i4eZhQgf2fpV0Ovh3T5-10" value="&lt;div&gt;EditInventoryItemTab&lt;/div&gt;&lt;div&gt;&lt;br&gt;&lt;/div&gt;" style="rounded=1;whiteSpace=wrap;html=1;" vertex="1" parent="1">
          <mxGeometry x="470" y="440" width="130" height="100" as="geometry" />
        </mxCell>
        <mxCell id="7i4eZhQgf2fpV0Ovh3T5-13" value="&lt;div&gt;ManageInventoryTab&lt;/div&gt;&lt;div&gt;&lt;br&gt;&lt;/div&gt;" style="rounded=1;whiteSpace=wrap;html=1;" vertex="1" parent="1">
          <mxGeometry x="295" y="430" width="130" height="100" as="geometry" />
        </mxCell>
        <mxCell id="7i4eZhQgf2fpV0Ovh3T5-20" value="&lt;div&gt;InventoryCarousel&lt;/div&gt;" style="rounded=1;whiteSpace=wrap;html=1;" vertex="1" parent="1">
          <mxGeometry y="620" width="140" height="100" as="geometry" />
        </mxCell>
        <mxCell id="7i4eZhQgf2fpV0Ovh3T5-25" style="edgeStyle=orthogonalEdgeStyle;rounded=0;orthogonalLoop=1;jettySize=auto;html=1;" edge="1" parent="1" source="7i4eZhQgf2fpV0Ovh3T5-24">
          <mxGeometry relative="1" as="geometry">
            <mxPoint x="230" y="520" as="targetPoint" />
          </mxGeometry>
        </mxCell>
        <mxCell id="7i4eZhQgf2fpV0Ovh3T5-24" value="&lt;div&gt;InventoryCarousel&lt;/div&gt;" style="rounded=1;whiteSpace=wrap;html=1;" vertex="1" parent="1">
          <mxGeometry x="160" y="620" width="140" height="100" as="geometry" />
        </mxCell>
        <mxCell id="7i4eZhQgf2fpV0Ovh3T5-26" value="&lt;div&gt;InventoryCarousel&lt;/div&gt;" style="rounded=1;whiteSpace=wrap;html=1;" vertex="1" parent="1">
          <mxGeometry x="400" y="620" width="140" height="100" as="geometry" />
        </mxCell>
        <mxCell id="7i4eZhQgf2fpV0Ovh3T5-29" style="edgeStyle=orthogonalEdgeStyle;rounded=0;orthogonalLoop=1;jettySize=auto;html=1;" edge="1" parent="1" source="7i4eZhQgf2fpV0Ovh3T5-27">
          <mxGeometry relative="1" as="geometry">
            <mxPoint x="570" y="550" as="targetPoint" />
          </mxGeometry>
        </mxCell>
        <mxCell id="7i4eZhQgf2fpV0Ovh3T5-27" value="&lt;div&gt;InventoryCarousel&lt;/div&gt;" style="rounded=1;whiteSpace=wrap;html=1;" vertex="1" parent="1">
          <mxGeometry x="560" y="620" width="140" height="100" as="geometry" />
        </mxCell>
        <mxCell id="7i4eZhQgf2fpV0Ovh3T5-28" style="edgeStyle=orthogonalEdgeStyle;rounded=0;orthogonalLoop=1;jettySize=auto;html=1;entryX=0.185;entryY=1;entryDx=0;entryDy=0;entryPerimeter=0;" edge="1" parent="1" source="7i4eZhQgf2fpV0Ovh3T5-26" target="7i4eZhQgf2fpV0Ovh3T5-10">
          <mxGeometry relative="1" as="geometry" />
        </mxCell>
      </root>
    </mxGraphModel>
  </diagram>
</mxfile>
